<?xml version="1.0" encoding="UTF-8"?>
<svg xmlns="http://www.w3.org/2000/svg" xmlns:xlink="http://www.w3.org/1999/xlink" width="40px" height="40px" viewBox="0 0 40 40" version="1.1">
<g id="surface1">
<path style=" stroke:none;fill-rule:nonzero;fill:rgb(58.823529%,47.843137%,29.019608%);fill-opacity:1;" d="M 33.609375 24.671875 C 32.976562 24.671875 32.46875 24.160156 32.46875 23.53125 C 32.46875 22.902344 32.976562 22.390625 33.609375 22.390625 C 35.519531 22.390625 37.070312 20.835938 37.070312 18.925781 C 37.070312 17.015625 35.519531 15.460938 33.609375 15.460938 C 30.441406 15.460938 27.863281 12.886719 27.863281 9.71875 C 27.863281 6.550781 30.441406 3.972656 33.609375 3.972656 C 34.238281 3.972656 34.746094 4.484375 34.746094 5.113281 C 34.746094 5.742188 34.238281 6.253906 33.609375 6.253906 C 31.699219 6.253906 30.144531 7.808594 30.144531 9.71875 C 30.144531 11.628906 31.695312 13.183594 33.609375 13.183594 C 36.773438 13.183594 39.351562 15.757812 39.351562 18.925781 C 39.351562 22.09375 36.773438 24.671875 33.609375 24.671875 Z M 33.609375 24.671875 "/>
<path style=" stroke:none;fill-rule:nonzero;fill:rgb(50.980392%,41.568627%,25.098039%);fill-opacity:1;" d="M 7.128906 25.007812 C 5.746094 25.007812 4.628906 26.125 4.628906 27.507812 L 4.628906 32.695312 L 2.316406 32.695312 C 1.398438 32.695312 0.652344 33.441406 0.652344 34.363281 L 0.652344 35.273438 C 0.652344 35.691406 0.988281 36.027344 1.402344 36.027344 L 7.960938 36.027344 C 8.878906 36.027344 9.625 35.28125 9.625 34.363281 L 9.625 27.507812 C 9.625 26.125 8.507812 25.007812 7.128906 25.007812 Z M 7.128906 25.007812 "/>
<path style=" stroke:none;fill-rule:nonzero;fill:rgb(58.823529%,47.843137%,29.019608%);fill-opacity:1;" d="M 27.71875 17.050781 L 6.152344 17.050781 L 6.152344 28.03125 C 6.152344 32.160156 9.5 35.507812 13.628906 35.507812 L 27.71875 35.507812 L 27.71875 35.457031 C 32.800781 35.457031 36.921875 31.335938 36.921875 26.253906 C 36.921875 21.171875 32.800781 17.050781 27.71875 17.050781 Z M 27.71875 17.050781 "/>
<path style=" stroke:none;fill-rule:nonzero;fill:rgb(39.607843%,31.764706%,23.529412%);fill-opacity:1;" d="M 18.007812 17.050781 L 18.007812 22.460938 C 18.007812 23.484375 18.835938 24.316406 19.859375 24.316406 C 20.886719 24.316406 21.714844 23.484375 21.714844 22.460938 L 21.714844 17.050781 Z M 18.007812 17.050781 "/>
<path style=" stroke:none;fill-rule:nonzero;fill:rgb(39.607843%,31.764706%,23.529412%);fill-opacity:1;" d="M 24.457031 17.050781 L 24.457031 22.460938 C 24.457031 23.484375 25.289062 24.316406 26.3125 24.316406 C 27.335938 24.316406 28.167969 23.484375 28.167969 22.460938 L 28.167969 17.050781 Z M 24.457031 17.050781 "/>
<path style=" stroke:none;fill-rule:nonzero;fill:rgb(67.843137%,55.294118%,33.72549%);fill-opacity:1;" d="M 28.628906 23.269531 C 25.105469 23.269531 22.25 26.125 22.25 29.648438 C 22.25 30.75 22.53125 31.789062 23.027344 32.695312 L 22.351562 32.695312 C 21.433594 32.695312 20.6875 33.441406 20.6875 34.363281 L 20.6875 35.273438 C 20.6875 35.691406 21.023438 36.027344 21.441406 36.027344 L 28.628906 36.027344 C 32.152344 36.027344 35.007812 33.171875 35.007812 29.648438 C 35.007812 26.125 32.152344 23.269531 28.628906 23.269531 Z M 28.628906 23.269531 "/>
<path style=" stroke:none;fill-rule:nonzero;fill:rgb(67.843137%,55.294118%,33.72549%);fill-opacity:1;" d="M 15.535156 25.007812 C 14.152344 25.007812 13.035156 26.125 13.035156 27.507812 L 13.035156 32.695312 L 10.722656 32.695312 C 9.804688 32.695312 9.058594 33.441406 9.058594 34.363281 L 9.058594 35.273438 C 9.058594 35.691406 9.394531 36.027344 9.808594 36.027344 L 16.367188 36.027344 C 17.285156 36.027344 18.03125 35.28125 18.03125 34.363281 L 18.03125 27.507812 C 18.03125 26.125 16.914062 25.007812 15.535156 25.007812 Z M 15.535156 25.007812 "/>
<path style=" stroke:none;fill-rule:nonzero;fill:rgb(58.823529%,47.843137%,29.019608%);fill-opacity:1;" d="M 18.878906 9.570312 L 18.878906 5.398438 C 18.878906 4.917969 18.488281 4.527344 18.007812 4.527344 C 17.78125 4.527344 17.570312 4.617188 17.417969 4.761719 L 14.105469 8.074219 C 12.863281 7.246094 11.371094 6.761719 9.761719 6.761719 C 8.15625 6.761719 6.664062 7.246094 5.421875 8.074219 L 2.109375 4.761719 C 1.953125 4.617188 1.746094 4.527344 1.519531 4.527344 C 1.039062 4.527344 0.648438 4.917969 0.648438 5.398438 L 0.648438 15.894531 C 0.648438 20.929688 4.730469 25.625 9.765625 25.625 C 14.796875 25.625 18.878906 20.929688 18.878906 15.894531 Z M 18.878906 9.570312 "/>
<path style=" stroke:none;fill-rule:nonzero;fill:rgb(100%,100%,100%);fill-opacity:1;" d="M 11.566406 15.699219 L 7.960938 15.699219 C 6.863281 15.699219 5.972656 16.589844 5.972656 17.6875 C 5.972656 18.78125 6.863281 19.671875 7.960938 19.671875 C 8.761719 19.671875 9.449219 19.195312 9.761719 18.511719 C 10.078125 19.195312 10.765625 19.671875 11.566406 19.671875 C 12.664062 19.671875 13.554688 18.78125 13.554688 17.6875 C 13.554688 16.589844 12.664062 15.699219 11.566406 15.699219 Z M 11.566406 15.699219 "/>
<path style=" stroke:none;fill-rule:nonzero;fill:rgb(20%,24.313725%,28.235294%);fill-opacity:1;" d="M 10.890625 17.023438 C 10.320312 17.613281 9.367188 17.632812 8.777344 17.058594 L 8.117188 16.421875 C 7.527344 15.851562 7.714844 15.386719 8.539062 15.386719 L 10.972656 15.386719 C 11.796875 15.386719 12 15.871094 11.429688 16.460938 Z M 10.890625 17.023438 "/>
<path style=" stroke:none;fill-rule:nonzero;fill:rgb(39.607843%,31.764706%,23.529412%);fill-opacity:1;" d="M 9.761719 6.761719 C 9.125 6.761719 8.503906 6.839844 7.910156 6.984375 L 7.910156 9.542969 C 7.910156 10.566406 8.738281 11.398438 9.761719 11.398438 C 10.789062 11.398438 11.617188 10.566406 11.617188 9.542969 L 11.617188 6.984375 C 11.023438 6.839844 10.402344 6.761719 9.761719 6.761719 Z M 9.761719 6.761719 "/>
<path style=" stroke:none;fill-rule:nonzero;fill:rgb(11.764706%,14.509804%,16.862745%);fill-opacity:1;" d="M 4.515625 14.863281 C 5.019531 14.863281 5.425781 14.457031 5.425781 13.953125 C 5.425781 13.453125 5.019531 13.046875 4.515625 13.046875 C 4.011719 13.046875 3.605469 13.453125 3.605469 13.953125 C 3.605469 14.457031 4.011719 14.863281 4.515625 14.863281 Z M 12.097656 17.285156 C 12.109375 17.636719 12.398438 17.910156 12.746094 17.910156 C 12.753906 17.910156 12.761719 17.910156 12.769531 17.910156 L 15.972656 17.789062 C 16.332031 17.773438 16.609375 17.472656 16.597656 17.117188 C 16.582031 16.757812 16.285156 16.480469 15.925781 16.492188 L 12.71875 16.613281 C 12.363281 16.628906 12.082031 16.929688 12.097656 17.285156 Z M 15.011719 14.863281 C 15.515625 14.863281 15.921875 14.457031 15.921875 13.953125 C 15.921875 13.453125 15.511719 13.046875 15.011719 13.046875 C 14.507812 13.046875 14.101562 13.453125 14.101562 13.953125 C 14.101562 14.457031 14.507812 14.863281 15.011719 14.863281 Z M 11.355469 17.472656 L 11.898438 16.910156 C 12.527344 16.257812 12.433594 15.714844 12.320312 15.449219 C 12.207031 15.183594 11.882812 14.738281 10.972656 14.738281 L 8.539062 14.738281 C 7.621094 14.738281 7.304688 15.183594 7.195312 15.449219 C 7.089844 15.714844 7.007812 16.253906 7.667969 16.890625 L 8.328125 17.527344 C 8.726562 17.914062 9.253906 18.125 9.8125 18.125 C 10.402344 18.125 10.949219 17.894531 11.355469 17.472656 Z M 8.648438 16.035156 L 10.941406 16.035156 L 10.421875 16.574219 C 10.261719 16.738281 10.046875 16.828125 9.8125 16.828125 C 9.59375 16.828125 9.382812 16.746094 9.226562 16.59375 Z M 15.316406 19.65625 L 12.703125 18.085938 C 12.394531 17.902344 11.996094 18.003906 11.8125 18.308594 C 11.628906 18.617188 11.726562 19.015625 12.035156 19.199219 L 14.648438 20.769531 C 14.753906 20.832031 14.871094 20.863281 14.984375 20.863281 C 15.203125 20.863281 15.417969 20.75 15.539062 20.546875 C 15.722656 20.238281 15.625 19.84375 15.316406 19.65625 Z M 6.78125 17.910156 C 7.128906 17.910156 7.417969 17.636719 7.429688 17.285156 C 7.445312 16.929688 7.164062 16.628906 6.808594 16.613281 L 3.601562 16.492188 C 3.59375 16.492188 3.585938 16.492188 3.578125 16.492188 C 3.230469 16.492188 2.941406 16.765625 2.929688 17.117188 C 2.917969 17.472656 3.195312 17.773438 3.550781 17.789062 L 6.757812 17.910156 C 6.765625 17.910156 6.773438 17.910156 6.78125 17.910156 Z M 40 18.925781 C 40 15.402344 37.132812 12.535156 33.609375 12.535156 C 32.054688 12.535156 30.792969 11.269531 30.792969 9.71875 C 30.792969 8.164062 32.054688 6.902344 33.609375 6.902344 C 34.59375 6.902344 35.394531 6.097656 35.394531 5.113281 C 35.394531 4.128906 34.59375 3.324219 33.609375 3.324219 C 30.082031 3.324219 27.214844 6.191406 27.214844 9.71875 C 27.214844 13.242188 30.082031 16.109375 33.609375 16.109375 C 35.160156 16.109375 36.425781 17.375 36.425781 18.925781 C 36.425781 19.566406 36.210938 20.171875 35.824219 20.664062 C 34.042969 18.089844 31.074219 16.402344 27.71875 16.402344 L 19.515625 16.402344 C 19.523438 16.234375 19.527344 16.0625 19.527344 15.894531 L 19.527344 9.570312 C 19.527344 9.5625 19.527344 9.558594 19.527344 9.550781 L 19.527344 5.398438 C 19.527344 4.5625 18.847656 3.878906 18.007812 3.878906 C 17.625 3.878906 17.257812 4.023438 16.976562 4.289062 C 16.96875 4.292969 16.964844 4.296875 16.957031 4.304688 L 14.011719 7.253906 C 12.722656 6.503906 11.265625 6.113281 9.765625 6.113281 C 8.261719 6.113281 6.804688 6.503906 5.515625 7.253906 L 2.570312 4.304688 C 2.5625 4.296875 2.558594 4.292969 2.550781 4.289062 C 2.269531 4.023438 1.902344 3.882812 1.519531 3.882812 C 0.679688 3.882812 0 4.5625 0 5.398438 L 0 15.894531 C 0 18.492188 1.035156 21.113281 2.839844 23.085938 C 3.554688 23.867188 4.351562 24.511719 5.207031 25.015625 C 4.445312 25.601562 3.980469 26.511719 3.980469 27.507812 L 3.980469 32.046875 L 2.316406 32.046875 C 1.042969 32.046875 0.00390625 33.085938 0.00390625 34.363281 L 0.00390625 35.273438 C 0.00390625 36.046875 0.632812 36.675781 1.402344 36.675781 L 7.960938 36.675781 C 8.332031 36.675781 8.6875 36.585938 9.011719 36.421875 C 9.238281 36.582031 9.511719 36.675781 9.808594 36.675781 L 16.367188 36.675781 C 16.917969 36.675781 17.425781 36.480469 17.824219 36.15625 L 20.355469 36.15625 C 20.609375 36.472656 21 36.675781 21.441406 36.675781 L 28.628906 36.675781 C 31.234375 36.675781 33.507812 35.25 34.722656 33.140625 L 34.742188 33.160156 C 36.566406 31.304688 37.570312 28.851562 37.570312 26.253906 C 37.570312 25.519531 37.488281 24.804688 37.335938 24.117188 C 39.011719 22.914062 40 21.007812 40 18.925781 Z M 3.796875 22.210938 C 2.207031 20.472656 1.296875 18.171875 1.296875 15.894531 L 1.296875 5.398438 C 1.296875 5.277344 1.394531 5.175781 1.519531 5.175781 C 1.585938 5.175781 1.632812 5.203125 1.664062 5.230469 L 4.964844 8.53125 C 5.183594 8.75 5.527344 8.785156 5.78125 8.613281 C 6.964844 7.824219 8.339844 7.410156 9.765625 7.410156 C 11.1875 7.410156 12.5625 7.824219 13.746094 8.613281 C 14 8.785156 14.34375 8.75 14.5625 8.53125 L 17.863281 5.230469 C 17.894531 5.203125 17.941406 5.175781 18.007812 5.175781 C 18.132812 5.175781 18.230469 5.277344 18.230469 5.398438 L 18.230469 9.570312 C 18.230469 9.574219 18.230469 9.582031 18.230469 9.585938 L 18.230469 15.894531 C 18.230469 18.171875 17.320312 20.472656 15.730469 22.210938 C 14.097656 23.996094 11.980469 24.976562 9.765625 24.976562 C 7.546875 24.976562 5.429688 23.996094 3.796875 22.210938 Z M 8.410156 34.363281 L 8.410156 35.273438 C 8.273438 35.339844 8.117188 35.378906 7.960938 35.378906 L 1.402344 35.378906 C 1.347656 35.378906 1.300781 35.332031 1.300781 35.273438 L 1.300781 34.363281 C 1.300781 33.800781 1.757812 33.34375 2.316406 33.34375 L 4.628906 33.34375 C 4.988281 33.34375 5.277344 33.054688 5.277344 32.695312 L 5.277344 27.507812 C 5.277344 27.1875 5.359375 26.886719 5.503906 26.621094 L 5.503906 28.03125 C 5.503906 30.460938 6.558594 32.710938 8.414062 34.261719 C 8.410156 34.292969 8.410156 34.328125 8.410156 34.363281 Z M 8.890625 32.953125 C 7.554688 31.667969 6.800781 29.914062 6.800781 28.03125 L 6.800781 25.757812 C 7.75 26.097656 8.746094 26.273438 9.765625 26.273438 C 10.875 26.273438 11.960938 26.0625 12.988281 25.664062 C 12.609375 26.179688 12.386719 26.816406 12.386719 27.507812 L 12.386719 32.046875 L 10.722656 32.046875 C 9.976562 32.046875 9.316406 32.402344 8.890625 32.953125 Z M 17.382812 34.363281 C 17.382812 34.921875 16.925781 35.378906 16.367188 35.378906 L 9.808594 35.378906 C 9.753906 35.378906 9.707031 35.332031 9.707031 35.273438 L 9.707031 34.363281 C 9.707031 33.800781 10.164062 33.34375 10.722656 33.34375 L 13.035156 33.34375 C 13.394531 33.34375 13.683594 33.054688 13.683594 32.695312 L 13.683594 27.507812 C 13.683594 26.484375 14.515625 25.65625 15.535156 25.65625 C 16.554688 25.65625 17.382812 26.484375 17.382812 27.507812 Z M 28.628906 35.378906 L 21.441406 35.378906 C 21.382812 35.378906 21.335938 35.332031 21.335938 35.273438 L 21.335938 34.363281 C 21.335938 33.800781 21.792969 33.34375 22.351562 33.34375 L 23.027344 33.34375 C 23.253906 33.34375 23.464844 33.222656 23.582031 33.027344 C 23.699219 32.832031 23.703125 32.585938 23.59375 32.386719 C 23.140625 31.550781 22.898438 30.605469 22.898438 29.648438 C 22.898438 26.488281 25.46875 23.917969 28.628906 23.917969 C 31.789062 23.917969 34.359375 26.488281 34.359375 29.648438 C 34.359375 32.808594 31.789062 35.378906 28.628906 35.378906 Z M 35.652344 29.460938 C 35.554688 25.671875 32.441406 22.621094 28.628906 22.621094 C 24.753906 22.621094 21.601562 25.773438 21.601562 29.648438 C 21.601562 30.476562 21.75 31.296875 22.03125 32.070312 C 20.910156 32.226562 20.039062 33.195312 20.039062 34.363281 L 20.039062 34.859375 L 18.625 34.859375 C 18.660156 34.699219 18.679688 34.53125 18.679688 34.363281 L 18.679688 27.507812 C 18.679688 25.769531 17.269531 24.359375 15.535156 24.359375 C 15.449219 24.359375 15.363281 24.363281 15.28125 24.371094 C 15.777344 23.996094 16.25 23.566406 16.6875 23.085938 C 18.074219 21.570312 19.003906 19.671875 19.363281 17.699219 L 27.71875 17.699219 C 32.433594 17.699219 36.273438 21.535156 36.273438 26.253906 C 36.273438 27.371094 36.058594 28.453125 35.652344 29.460938 Z M 36.9375 22.785156 C 36.8125 22.457031 36.671875 22.140625 36.515625 21.828125 C 37.285156 21.0625 37.71875 20.03125 37.71875 18.925781 C 37.71875 16.660156 35.875 14.8125 33.609375 14.8125 C 30.796875 14.8125 28.511719 12.527344 28.511719 9.71875 C 28.511719 6.90625 30.796875 4.621094 33.609375 4.621094 C 33.878906 4.621094 34.101562 4.84375 34.101562 5.113281 C 34.101562 5.382812 33.878906 5.605469 33.609375 5.605469 C 31.339844 5.605469 29.496094 7.449219 29.496094 9.71875 C 29.496094 11.984375 31.339844 13.832031 33.609375 13.832031 C 36.417969 13.832031 38.703125 16.117188 38.703125 18.925781 C 38.703125 20.429688 38.054688 21.824219 36.9375 22.785156 Z M 6.824219 18.085938 L 4.210938 19.65625 C 3.902344 19.84375 3.804688 20.238281 3.988281 20.546875 C 4.109375 20.75 4.324219 20.863281 4.542969 20.863281 C 4.65625 20.863281 4.773438 20.832031 4.878906 20.769531 L 7.492188 19.199219 C 7.800781 19.015625 7.898438 18.617188 7.714844 18.308594 C 7.53125 18.003906 7.132812 17.902344 6.824219 18.085938 Z M 6.824219 18.085938 "/>
</g>
</svg>
